Coordinates
version=1
nRows=4
nColumns=107
inDegrees=yes

Units are S.I. units (second, meters, Newtons, ...)
If the header above contains a line with 'inDegrees', this indicates whether rotational values are in degrees (yes) or radians (no).

endheader
time	sternoclavicular_r2	sternoclavicular_r3	unrotscap_r3	unrotscap_r2	acromioclavicular_r2	acromioclavicular_r3	acromioclavicular_r1	unrothum_r1	unrothum_r3	unrothum_r2	elv_angle	shoulder_elv	shoulder1_r2	shoulder_rot	elbow_flexion	pro_sup	deviation	flexion	proximal_distal_r1	proximal_distal_r3	cmc_flexion	cmc_abduction	mp_flexion	ip_flexion	mcp2_flexion	mcp2_abduction	pm2_flexion	md2_flexion	mcp3_flexion	mcp3_abduction	pm3_flexion	md3_flexion	mcp4_flexion	mcp4_abduction	pm4_flexion	md4_flexion	mcp5_flexion	mcp5_abduction	pm5_flexion	md5_flexion	bicpt_tx	bicpt_ty	bicpt_tz	bicpt2_tx	bicpt2_ty	bicpt2_tz	ptpt_tx	ptpt_ty	ptpt_tz	FCUpt_tx	FCUpt_ty	FCUpt_tz	EDCpt_tx	EDCpt_ty	EDCpt_tz	APLpt_tx	APLpt_ty	APLpt_tz	FPLpt_tx	FPLpt_ty	FPLpt_tz	FPLpt2_tx	FPLpt2_ty	FPLpt2_tz	PEC1pt2_tx	PEC1pt2_ty	PEC1pt2_tz	PEC1pt3_tx	PEC1pt3_ty	PEC1pt3_tz	PEC2pt2_tx	PEC2pt2_ty	PEC2pt2_tz	PEC2pt3_tx	PEC2pt3_ty	PEC2pt3_tz	PEC3pt2_tx	PEC3pt2_ty	PEC3pt2_tz	PEC3pt3_tx	PEC3pt3_ty	PEC3pt3_tz	DELT2pt2a_tx	DELT2pt2a_ty	DELT2pt2a_tz	DELT2pt2_tx	DELT2pt2_ty	DELT2pt2_tz	LAT1pt2_tx	LAT1pt2_ty	LAT1pt2_tz	LAT1pt3_tx	LAT1pt3_ty	LAT1pt3_tz	LAT2pt2_tx	LAT2pt2_ty	LAT2pt2_tz	LAT2pt3_tx	LAT2pt3_ty	LAT2pt3_tz	LAT3pt2_tx	LAT3pt2_ty	LAT3pt2_tz	LAT3pt3_tx	LAT3pt3_ty	LAT3pt3_tz
      1.53333333	     -0.30298881	      0.12833176	     -0.12833176	      0.30298881	     -0.06134907	      0.49580161	      0.22285941	     -0.22285941	     -0.49580161	      0.06134907	    105.93114900	     71.73529444	     -1.84884733	    -53.60450749	     32.26360993	     86.22995807	      0.35392481	      0.06443793	      0.37779761	      0.03221897	     33.95379582	    -11.08908053	     -8.80203396	      8.53195464	     23.16803370	      2.04566374	     40.84018399	     23.84869379	     26.65702052	     -4.54331708	     37.06841069	     27.47300515	     11.44165791	    -11.84002752	     45.37603254	     30.20924982	      0.28505920	    -13.63086593	     29.09717782	      5.20102505	      0.00096718	     -0.03129790	     -0.00489564	      0.01421608	     -0.01896457	     -0.00103662	      0.00117858	     -0.06901987	     -0.00699629	      0.01276443	     -0.18222994	      0.00009015	     -0.01034757	      0.00359064	     -0.00076462	     -0.00006940	     -0.00002776	     -0.00013881	     -0.00008884	     -0.00026651	     -0.00014991	     -0.00001232	     -0.00020837	     -0.00025004	      0.00235133	      0.00824957	      0.00573883	     -0.00769162	      0.01857149	     -0.01761501	      0.00235133	      0.00824957	      0.00573883	      0.00051809	      0.01721649	     -0.00904663	      0.00377658	      0.00458748	      0.01553368	      0.00000000	      0.00687682	      0.00000000	     -0.00673515	     -0.03112517	     -0.00566468	      0.02561567	     -0.00161796	     -0.02158194	     -0.00083691	      0.01402825	     -0.00573883	      0.00231147	      0.02024531	     -0.01673825	     -0.00561927	      0.01215516	     -0.00514103	     -0.01171677	      0.02566532	     -0.02873399	     -0.02199884	      0.01358986	     -0.00689456	     -0.01458619	      0.02965061	     -0.03590753
      1.56666667	     -0.30368901	      0.12862833	     -0.12862833	      0.30368901	     -0.06149085	      0.49694740	      0.22337443	     -0.22337443	     -0.49694740	      0.06149085	    106.01285350	     71.90107271	     -1.85027334	    -53.52042013	     31.79047381	     85.09062482	      0.34222919	      0.07650616	      0.36858969	      0.03825308	     33.56156583	    -11.71339745	    -10.29817861	      8.48956030	     18.59977505	     -0.51031223	     35.90528222	     20.71362870	     21.88037279	     -5.93836609	     30.86168574	     24.69231477	      6.14158593	    -11.41131068	     38.36101908	     27.45825512	     -6.83247722	    -13.25336553	     25.37651714	      5.16861042	      0.00095153	     -0.03124367	     -0.00488690	      0.01433296	     -0.01883604	     -0.00123119	      0.00126276	     -0.06896543	     -0.00690451	      0.01263366	     -0.18226841	      0.00005906	     -0.01021085	      0.00352824	     -0.00072824	     -0.00008318	     -0.00003327	     -0.00016635	     -0.00010647	     -0.00031940	     -0.00017966	     -0.00001211	     -0.00021333	     -0.00025600	      0.00235676	      0.00826863	      0.00575209	     -0.00770940	      0.01861440	     -0.01765572	      0.00235676	      0.00826863	      0.00575209	      0.00051929	      0.01725627	     -0.00906753	      0.00378312	      0.00459808	      0.01555078	      0.00000000	      0.00690882	      0.00000000	     -0.00675072	     -0.03119710	     -0.00569128	      0.02560512	     -0.00161478	     -0.02152534	     -0.00083885	      0.01406067	     -0.00575209	      0.00231681	      0.02029210	     -0.01677693	     -0.00563226	      0.01218325	     -0.00515291	     -0.01174385	      0.02572463	     -0.02880040	     -0.02204968	      0.01362127	     -0.00691050	     -0.01461990	      0.02971914	     -0.03599051
      1.60000000	     -0.30427241	      0.12887543	     -0.12887543	      0.30427241	     -0.06160897	      0.49790206	      0.22380355	     -0.22380355	     -0.49790206	      0.06160897	    106.03597909	     72.03919809	     -1.85067696	    -53.37027032	     31.42516823	     84.07953287	      0.33100541	      0.08853886	      0.35954162	      0.04426943	     33.01667077	    -12.08660460	    -11.24355764	      8.74018902	     14.91305010	     -2.69658274	     31.62264791	     17.39982619	     17.94230318	     -7.11195720	     25.82873758	     22.28039532	      1.82494591	    -10.97559305	     32.41223496	     25.29415082	    -12.37879860	    -12.85336883	     22.14727996	      5.16229454	      0.00093945	     -0.03120180	     -0.00488016	      0.01443420	     -0.01873680	     -0.00140233	      0.00133747	     -0.06891712	     -0.00682306	      0.01251795	     -0.18230225	      0.00003229	     -0.01008952	      0.00347319	     -0.00069655	     -0.00009715	     -0.00003886	     -0.00019430	     -0.00012435	     -0.00037306	     -0.00020985	     -0.00001173	     -0.00021981	     -0.00026377	      0.00236129	      0.00828451	      0.00576314	     -0.00772421	      0.01865016	     -0.01768964	      0.00236129	      0.00828451	      0.00576314	      0.00052028	      0.01728942	     -0.00908495	      0.00378856	      0.00460691	      0.01556498	      0.00000000	      0.00693554	      0.00000000	     -0.00676369	     -0.03125703	     -0.00571349	      0.02558539	     -0.00160911	     -0.02142451	     -0.00084046	      0.01408768	     -0.00576314	      0.00232127	      0.02033108	     -0.01680916	     -0.00564308	      0.01220665	     -0.00516281	     -0.01176641	      0.02577405	     -0.02885573	     -0.02209204	      0.01364744	     -0.00692377	     -0.01464798	      0.02977623	     -0.03605965
      1.63333333	     -0.30491213	      0.12914639	     -0.12914639	      0.30491213	     -0.06173850	      0.49894887	      0.22427408	     -0.22427408	     -0.49894887	      0.06173850	    105.89597830	     72.19065613	     -1.84823349	    -52.68865702	     31.14104137	     83.16851458	      0.33166398	      0.11408119	      0.36007830	      0.05704059	     32.35697412	    -12.17931670	    -11.40524937	      9.91980947	     12.18915296	     -4.06575432	     32.24899253	      1.64992037	     15.12262843	     -7.97090060	     21.73298538	     19.35118414	     -0.21937059	    -10.51806437	     24.95004852	     25.31975485	    -15.52106369	    -12.51337357	     18.35890472	      5.17164023	      0.00093005	     -0.03116924	     -0.00487491	      0.01452343	     -0.01865962	     -0.00155531	      0.00140479	     -0.06887360	     -0.00674967	      0.01241397	     -0.18233248	      0.00000883	     -0.00998020	      0.00342387	     -0.00066847	     -0.00012762	     -0.00005105	     -0.00025524	     -0.00016335	     -0.00049006	     -0.00027566	     -0.00001120	     -0.00022727	     -0.00027273	      0.00236625	      0.00830193	      0.00577526	     -0.00774045	      0.01868937	     -0.01772683	      0.00236625	      0.00830193	      0.00577526	      0.00052138	      0.01732577	     -0.00910405	      0.00379452	      0.00461660	      0.01558050	      0.00000000	      0.00696489	      0.00000000	     -0.00677791	     -0.03132275	     -0.00573790	      0.02549364	     -0.00158338	     -0.02096741	     -0.00084223	      0.01411730	     -0.00577526	      0.00232615	      0.02037382	     -0.01684450	     -0.00565494	      0.01223232	     -0.00517367	     -0.01179115	      0.02582823	     -0.02891639	     -0.02213849	      0.01367613	     -0.00693833	     -0.01467878	      0.02983883	     -0.03613546
